<?xml version="1.0" encoding="UTF-8"?>
<svg id="Layer_1" xmlns="http://www.w3.org/2000/svg" viewBox="0 0 3697.68 16.33">
  <rect x="849.54" y="0" width="16.33" height="16.33" rx="4.87" ry="4.87"/>
  <rect x="934.13" y="0" width="130.34" height="16.33"/>
  <rect x="1132.72" y="0" width="16.33" height="16.33" rx="4.87" ry="4.87"/>
  <rect x="1217.31" y="0" width="130.34" height="16.33"/>
  <rect x="1415.9" y="0" width="16.33" height="16.33" rx="4.87" ry="4.87"/>
  <rect x="1500.49" y="0" width="130.34" height="16.33"/>
  <rect x="1699.08" y="0" width="16.33" height="16.33" rx="4.87" ry="4.87"/>
  <rect x="1783.67" y="0" width="130.34" height="16.33"/>
  <rect x="1982.26" y="0" width="16.33" height="16.33" rx="4.87" ry="4.87"/>
  <rect x="2066.85" y="0" width="130.34" height="16.33"/>
  <rect x="2265.44" y="0" width="16.33" height="16.33" rx="4.87" ry="4.87"/>
  <rect x="650.95" width="130.34" height="16.33"/>
  <rect x="566.36" y="0" width="16.33" height="16.33" rx="4.87" ry="4.87"/>
  <rect x="367.77" y="0" width="130.34" height="16.33"/>
  <rect x="283.18" y="0" width="16.33" height="16.33" rx="4.87" ry="4.87"/>
  <rect x="84.59" y="0" width="130.34" height="16.33"/>
  <rect x="0" y="0" width="16.33" height="16.33" rx="4.87" ry="4.87"/>
  <rect x="2350.03" y="0" width="130.34" height="16.33"/>
  <rect x="2548.63" y="0" width="16.33" height="16.33" rx="4.87" ry="4.87"/>
  <rect x="2633.21" y="0" width="130.34" height="16.33"/>
  <rect x="2831.81" y="0" width="16.33" height="16.33" rx="4.87" ry="4.87"/>
  <rect x="2916.39" y="0" width="130.34" height="16.33"/>
  <rect x="3114.99" y="0" width="16.33" height="16.33" rx="4.87" ry="4.87"/>
  <rect x="3199.57" y="0" width="130.34" height="16.33"/>
  <rect x="3398.17" y="0" width="16.33" height="16.33" rx="4.87" ry="4.87"/>
  <rect x="3482.76" y="0" width="130.34" height="16.33"/>
  <rect x="3681.35" y="0" width="16.33" height="16.33" rx="4.87" ry="4.87"/>
</svg>