<?xml version="1.0" encoding="UTF-8"?>
<svg id="Layer_1" data-name="Layer 1" xmlns="http://www.w3.org/2000/svg" viewBox="0 0 1225.26 49.51">
  <defs>
    <style>
      .cls-1, .cls-2, .cls-3 {
        stroke-width: 0px;
      }

      .cls-1, .cls-4 {
        fill: #009245;
      }

      .cls-5, .cls-2 {
        fill: #000;
      }

      .cls-5, .cls-4 {
        stroke: #fff;
        stroke-miterlimit: 10;
      }

      .cls-3 {
        fill: #fff;
      }
    </style>
  </defs>
  <ellipse class="cls-2" cx="57.48" cy="20.19" rx="57.48" ry="10.97"/>
  <ellipse class="cls-2" cx="180.15" cy="29.87" rx="52.31" ry="11.29"/>
  <ellipse class="cls-2" cx="311.05" cy="29.55" rx="55.37" ry="7.58"/>
  <ellipse class="cls-2" cx="437.51" cy="22.44" rx="53.99" ry="10"/>
  <ellipse class="cls-2" cx="571.89" cy="28.66" rx="60.54" ry="10.08"/>
  <ellipse class="cls-2" cx="697.13" cy="31.96" rx="57.93" ry="7.58"/>
  <ellipse class="cls-2" cx="812.18" cy="28.66" rx="49.95" ry="10.08"/>
  <path class="cls-4" d="M716.57,39.1c-.21-21.38-10.35-38.6-22.83-38.6s-22.42,16.9-22.82,38"/>
  <path class="cls-2" d="M716.57,39.54c0-.15,0-.29,0-.44"/>
  <circle class="cls-5" cx="684.91" cy="13.64" r="4.2"/>
  <path class="cls-4" d="M687.05,30.3c.2,1.61,2.55,2.93,5.51,3.25,3.82.41,8.34-.9,9.12-3.07"/>
  <ellipse class="cls-2" cx="928.53" cy="32.29" rx="51.31" ry="7.58"/>
  <ellipse class="cls-2" cx="1050.28" cy="26.8" rx="45.22" ry="7.58"/>
  <ellipse class="cls-2" cx="1179.08" cy="27.79" rx="46.18" ry="12.09"/>
  <path class="cls-3" d="M690.27,46.45c.01.12.01.24,0,.36l.05-.4c-.02.12-.05.23-.09.34l.15-.36c-.04.09-.09.17-.14.24l.23-.3c-.05.06-.11.12-.17.17l.3-.23c-.06.05-.13.09-.21.12l.36-.15c-.16.06-.32.1-.48.12l.4-.05c-.19.02-.37.03-.56,0l.4.05c-.12-.02-.24-.05-.35-.09l.36.15c-.09-.04-.17-.08-.25-.14l.3.23c-.06-.05-.11-.1-.16-.15l.23.3s-.04-.06-.06-.1l.15.36s-.01-.05-.02-.07l.05.4v-.04c-.02.13-.04.27-.05.4,0-.02,0-.05.02-.07l-.15.36.02-.03-.23.3s.04-.05.07-.07l-.3.23c.13-.09.28-.16.43-.23l-.36.15c.28-.12.56-.19.86-.23l-.4.05c.28-.03.57-.03.85,0l-.4-.05c.07,0,.13.02.2.04l-.36-.15.03.02-.3-.23.02.02-.23-.3v.02c-.04-.39-.09-.77-.14-1.16v.03c-.12.37-.05.83.14,1.16.18.31.54.61.9.69.38.09.81.07,1.16-.15s.58-.51.69-.9c.2-.69-.13-1.43-.74-1.78-.34-.19-.71-.22-1.08-.26s-.76.01-1.14.07c-.26.04-.52.1-.76.2-.23.09-.45.18-.67.29-.05.03-.1.05-.14.08-.15.09-.31.2-.42.33-.41.45-.57,1.03-.43,1.62.04.17.11.33.2.48s.21.3.33.42c.33.32.76.56,1.2.66.33.08.69.12,1.03.08.51-.05.99-.13,1.43-.4.15-.09.29-.2.42-.32.04-.04.08-.08.12-.12.28-.32.4-.54.55-.93.14-.34.19-.74.15-1.1,0-.21-.04-.4-.13-.58-.06-.19-.16-.35-.31-.48-.26-.26-.69-.46-1.06-.44s-.79.14-1.06.44c-.25.27-.49.68-.44,1.06h0Z"/>
  <path class="cls-3" d="M691.16,45.41h-.06c.13,0,.27-.03.4-.04-.26.04-.53.04-.79,0l.4.05c-.15-.02-.3-.04-.44-.1l.36.15-.03-.02.3.23-.03-.03.23.3-.02-.04.2.76v-.04c-.02.13-.04.27-.05.4v-.04c-.04.12-.09.24-.14.36l.02-.04-.23.3s.06-.07.11-.11l-.3.23c.1-.07.2-.12.32-.17l-.36.15c.19-.08.39-.13.6-.16l-.4.05c.37-.05.75-.04,1.12,0l-.4-.05c.17.02.33.06.49.13l-.36-.15c.09.04.18.09.26.15l-.3-.23c.06.05.12.11.17.17l-.23-.3c.05.06.09.13.12.2l-.15-.36c.02.06.04.12.05.18l-.05-.4c0,.06,0,.12,0,.18l.05-.4c-.01.06-.03.11-.05.17l.15-.36c-.03.07-.07.13-.12.19l.23-.3c-.06.07-.13.14-.2.2l.3-.23c-.1.08-.21.14-.33.19l.36-.15c-.12.05-.24.08-.37.1l.4-.05c-.1.01-.19.01-.28,0l.4.05c-.06-.01-.12-.03-.18-.05l.36.15c-.06-.02-.11-.05-.16-.09l.3.23-.04-.03c-.32-.26-.64-.44-1.06-.44-.37,0-.81.16-1.06.44s-.46.66-.44,1.06c.02.37.14.81.44,1.06s.55.42.92.53c.24.07.52.1.77.08.51-.04,1.02-.17,1.44-.47.5-.35.9-.8,1.07-1.4s.07-1.29-.28-1.79c-.37-.54-.87-.9-1.5-1.09-.4-.12-.85-.16-1.27-.16-.92-.02-1.95.2-2.63.87-.53.52-.66,1.36-.29,2.01.25.43.68.71,1.16.81.31.07.63.11.95.12s.64-.04.95-.09c.35-.05.73-.4.9-.69.19-.32.27-.8.15-1.16s-.34-.71-.69-.9l-.36-.15c-.27-.07-.53-.07-.8,0h0Z"/>
  <path class="cls-3" d="M690.13,45.37s-.03-.05-.04-.08l.15.36s-.02-.06-.02-.09l.05.4s0-.06,0-.09l-.05.4s.01-.06.02-.09l-.15.36s.04-.08.07-.12l-.23.3s.04-.05.07-.07l-.3.23c.05-.04.11-.07.17-.1l-.36.15c.11-.04.23-.07.35-.09l-.4.05c.2-.02.39-.02.59,0l-.4-.05c.16.03.31.07.46.13l-.36-.15c.11.05.22.11.32.19l-.3-.23c.09.07.17.16.25.25l-.23-.3c.07.1.13.19.17.3l-.15-.36c.04.09.06.19.08.29l-.05-.4c.01.1.02.19,0,.29l.05-.4c-.01.1-.04.19-.08.28l.15-.36c-.04.09-.09.17-.15.25l.23-.3c-.07.09-.15.17-.24.24l.3-.23c-.12.09-.25.16-.38.22l.36-.15c-.17.07-.35.12-.53.14l.4-.05c-.2.02-.4.02-.61,0l.4.05c-.2-.03-.4-.08-.59-.16l.36.15c-.17-.07-.33-.17-.48-.28l.3.23c-.11-.08-.21-.17-.3-.28l.23.3-.03-.05.15.36s-.03-.06-.03-.1l.05.4v-.04c-.02.13-.03.27-.05.4v-.04c-.04.12-.09.24-.14.36.01-.03.03-.05.04-.07l-.23.3s.04-.05.06-.06l-.3.23c.15-.11.32-.19.48-.26l-.36.15c.31-.13.63-.22.96-.26l-.4.05c.27-.03.54-.04.81,0l-.4-.05c.08.01.16.03.24.06l-.36-.15s.06.03.08.05l-.3-.23s.04.04.06.06l-.23-.3.02.03-.15-.36s.02.05.02.07l-.05-.4s0,.05,0,.07l.05-.4s0,.05-.01.07l.15-.36s-.02.04-.04.06l.23-.3-.03.02.3-.23-.03.02c-.33.18-.59.54-.69.9s-.05.84.15,1.16c.45.69,1.32.95,2.05.54.66-.37,1-1.21.79-1.94-.18-.64-.7-1.14-1.35-1.3-.7-.17-1.5-.1-2.2.08-.35.09-.7.24-1.02.4-.46.23-.84.57-1.05,1.05-.3.71-.07,1.48.48,2,.24.22.51.43.8.58.6.31,1.28.5,1.96.46.34-.02.7-.06,1.02-.18.45-.17.77-.35,1.13-.65.08-.07.16-.14.22-.22.14-.17.28-.34.37-.53.2-.4.33-.85.29-1.31s-.14-.87-.38-1.27-.55-.7-.93-.96c-.19-.13-.42-.22-.64-.3-.12-.05-.25-.09-.38-.11-.53-.1-.96-.09-1.49,0s-1,.37-1.31.79c-.26.34-.38.7-.42,1.12-.03.33.08.74.26,1.02.21.33.51.58.9.69.36.1.84.05,1.16-.15s.6-.51.69-.9.07-.82-.15-1.16h0Z"/>
  <path class="cls-3" d="M693.15,46.34h-.03c-.21,0-.4.04-.58.13-.19.06-.35.16-.48.31-.15.14-.25.3-.31.48-.09.18-.14.37-.13.58l.05.4c.07.25.2.47.39.66l.3.23c.23.14.49.2.76.2h.03c.21,0,.4-.04.58-.13.19-.06.35-.16.48-.31.15-.14.25-.3.31-.48.09-.18.14-.37.13-.58l-.05-.4c-.07-.25-.2-.47-.39-.66l-.3-.23c-.23-.14-.49-.2-.76-.2h0Z"/>
  <path class="cls-3" d="M693.1,49.34c1.93,0,1.93-3,0-3s-1.93,3,0,3h0Z"/>
  <path class="cls-3" d="M679.96,46.02c-.13,0-.26-.02-.39-.03-.04,0-.47-.07-.12-.01-.24-.04-.48-.08-.71-.13-.49-.1-.98-.24-1.46-.41-.12-.04-.25-.09-.37-.14-.27-.1.09.05-.07-.03-.22-.1-.44-.2-.65-.31-.47-.24-.92-.52-1.35-.82l-.36,2.74c.08-.03.16-.06.24-.08-.19.02-.19.03-.01.02.09,0,.17,0,.26.02-.18-.03-.18-.02,0,0,.36.07.71.14,1.06.24.17.05.35.11.52.17.09.03.17.06.25.1-.15-.06-.14-.06.02,0,.16.08.33.16.49.24.08.04.16.09.24.13.25.16.17.07-.23-.25l-.15-1.16v.09c.12-.22.24-.44.37-.66l-.07.07.66-.39c-.2.08-.41.13-.62.17-.4.08.28,0-.14.01-.11,0-.22,0-.34,0s-.22,0-.34-.02c.22.02.06.01-.07-.02-.11-.02-.22-.05-.33-.08-.06-.02-.11-.03-.17-.05-.1-.04-.07-.02.08.04-.05,0-.16-.09-.21-.11-.12-.08-.13-.08-.04-.01.09.07.08.06-.02-.03l.09.13c-.15-.28-.2-.1-.15.52.11.35.03.59-.23.72l.08-.06c.19-.1.38-.21.58-.31-.28.15.08-.03.13-.05.1-.04.21-.07.31-.1.21-.06.43-.12.64-.16.11-.02.22-.04.33-.06,0,0,.4-.06.19-.03s.16-.02.2-.02c.14-.01.27-.03.41-.03.23-.02.46-.03.69-.02.12,0,.23,0,.34.01.12,0,.3.04.08,0,.23.04.45.1.67.16.29.09-.16-.15.08.05.18.15.01-.03-.07-.08-.05-.08-.06-.09-.02-.02.06.1.04.06-.05-.11-.03-.1.06-.54-.03-.28-.27.74.3,1.68,1.05,1.85.85.19,1.56-.26,1.85-1.05.39-1.08-.21-2.23-1.11-2.82-.76-.5-1.76-.67-2.64-.69-1.65-.05-3.45.26-4.9,1.06-.41.23-.82.52-1.07.93-.37.63-.37,1.39,0,2.02.48.82,1.35,1.32,2.25,1.55s1.83.23,2.73.05c.58-.12,1.22-.36,1.52-.91.4-.76.19-1.66-.48-2.18-.75-.58-1.74-.96-2.65-1.22s-2.13-.55-3.08-.19c-.57.22-.99.61-1.07,1.25s.21,1.14.72,1.49c1.96,1.36,4.27,2.11,6.65,2.28.78.05,1.53-.73,1.5-1.5-.04-.86-.66-1.44-1.5-1.5h0Z"/>
  <path class="cls-1" d="M680.04,39.02c2.74-.06,5.49-.04,8.23.06.78.03,1.54-.71,1.5-1.5-.04-.84-.66-1.47-1.5-1.5-2.74-.1-5.49-.12-8.23-.06-.78.02-1.54.68-1.5,1.5s.66,1.52,1.5,1.5h0Z"/>
  <path class="cls-1" d="M693.73,39.43c1.9-.06,3.8-.07,5.7-.03.78.01,1.54-.7,1.5-1.5s-.66-1.48-1.5-1.5c-1.9-.03-3.8-.02-5.7.03-.78.02-1.54.67-1.5,1.5s.66,1.52,1.5,1.5h0Z"/>
  <path class="cls-1" d="M700.09,38.99c1.56,0,3.13.02,4.69,0,.82,0,1.6-.2,2.41-.32-.22.03.33-.02.3-.02.18,0,.36,0,.55.02.43.04.85.1,1.27.15.78.1,1.53-.76,1.5-1.5-.04-.9-.66-1.4-1.5-1.5-.78-.1-1.56-.23-2.35-.13-.45.05-.89.15-1.33.23-.26.05-.45.06-.85.06-1.56.02-3.13,0-4.69,0-.78,0-1.54.69-1.5,1.5s.66,1.5,1.5,1.5h0Z"/>
  <path class="cls-1" d="M714.1,36.2c-.65-.03-1.29-.05-1.94-.05-.38,0-.79.17-1.06.44-.15.14-.25.3-.31.48-.09.18-.14.37-.13.58.02.39.14.79.44,1.06s.65.44,1.06.44c.65,0,1.29.02,1.94.05.21,0,.4-.04.58-.13.19-.06.35-.16.48-.31.15-.14.25-.3.31-.48.09-.18.14-.37.13-.58-.02-.39-.14-.79-.44-1.06l-.3-.23c-.23-.14-.49-.2-.76-.2h0Z"/>
  <path class="cls-1" d="M711.89,38.48c-1.12.01-2.24.02-3.36.01-.48,0-.48.75,0,.75,1.12,0,2.24,0,3.36-.01.48,0,.48-.76,0-.75h0Z"/>
  <path class="cls-1" d="M705.4,39.36c1.14.03,2.26-.34,3.4-.24.2.02.38-.18.38-.38,0-.22-.17-.36-.38-.38-1.14-.1-2.26.27-3.4.24-.48-.01-.48.74,0,.75h0Z"/>
  <path class="cls-1" d="M705.29,38.47c-.88.02-1.76.03-2.64.03-.81,0-1.66-.17-2.46,0-.47.1-.27.82.2.72.38-.08.78-.03,1.17,0s.79.04,1.19.04c.85,0,1.69-.01,2.54-.03.48-.01.48-.76,0-.75h0Z"/>
  <path class="cls-1" d="M672.07,38.78s.08-.02.12-.03h-.1c.1,0,.2,0,.31,0,.11,0,.21.01.32.02.09,0,.2-.05.27-.11.07-.07.11-.17.11-.27s-.04-.2-.11-.27l-.08-.06c-.06-.03-.12-.05-.19-.05-.13-.01-.26-.02-.39-.02-.15,0-.31,0-.45.05-.09.03-.17.09-.22.17-.05.08-.07.2-.04.29s.09.18.17.22.19.07.29.04h0Z"/>
  <path class="cls-1" d="M672.65,38.74c.3,0,.6.02.9.06h-.1s.04,0,.06,0c.1.01.19.02.29-.04.08-.05.15-.13.17-.22.02-.1.02-.2-.04-.29-.05-.08-.13-.16-.22-.17-.35-.05-.7-.08-1.06-.08-.2,0-.38.17-.38.38s.16.38.38.38h0Z"/>
  <path class="cls-1" d="M675.88,38.88c1.89-.08,3.75.44,5.64.26.48-.04.48-.8,0-.75-1.89.18-3.75-.34-5.64-.26-.48.02-.48.77,0,.75h0Z"/>
  <path class="cls-1" d="M681.54,39.15c1.8-.06,3.6.06,5.4.14.48.02.48-.73,0-.75-1.8-.08-3.6-.2-5.4-.14-.48.02-.48.77,0,.75h0Z"/>
  <path class="cls-1" d="M686.96,39.26c1.19.04,2.38.05,3.57.04.48,0,.48-.76,0-.75-1.19.02-2.38,0-3.57-.04-.48-.02-.48.73,0,.75h0Z"/>
  <path class="cls-1" d="M690.58,39.28c.87-.09,1.72.2,2.59.14.2-.01.38-.16.38-.38,0-.19-.17-.39-.38-.38-.87.06-1.72-.23-2.59-.14-.2.02-.38.16-.38.38,0,.19.17.4.38.38h0Z"/>
  <path class="cls-1" d="M714.65,39.16c.48,0,.48-.75,0-.75s-.48.75,0,.75h0Z"/>
  <path class="cls-1" d="M712.19,39.22c.48,0,.48-.75,0-.75s-.48.75,0,.75h0Z"/>
  <path class="cls-1" d="M708.19,38.59c-1.59,0-3.18.05-4.76.14-.48.03-.48.78,0,.75,1.59-.09,3.17-.13,4.76-.14.48,0,.48-.75,0-.75h0Z"/>
  <path class="cls-1" d="M699.78,39.43c1.18.13,2.36.07,3.54.01.48-.03.48-.78,0-.75-1.18.06-2.37.12-3.54-.01-.2-.02-.38.19-.38.38,0,.22.17.35.38.38h0Z"/>
  <path class="cls-1" d="M681.89,39.17c1.72.12,3.44.24,5.16.09.48-.04.48-.79,0-.75-1.72.14-3.44.03-5.16-.09-.48-.03-.48.72,0,.75h0Z"/>
  <path class="cls-1" d="M692.24,38.72c-.6,0-1.2-.09-1.8-.1-.53,0-1.06.07-1.59.08-1.15,0-2.29-.05-3.44-.08l.36.28c-.1-.37.8-.37.96-.33.34.09.67.28,1,.39.74.26,1.54.51,2.31.61.37.05.73-.02,1.1-.05.4-.02.79.03,1.19.05s.78,0,1.17-.05c.25-.03.54-.03.68-.28.12-.21.01-.49-.22-.55h-.02c-.18-.05-.43.05-.46.26h0c-.07.49.65.69.72.21h0c-.15.07-.31.16-.46.25h.02c-.07-.18-.15-.36-.22-.55l-.02.03.22-.17c-.8.3-1.77,0-2.6.05-.47.03-.87.1-1.34-.01s-.91-.22-1.36-.36c-.74-.22-1.54-.77-2.33-.59-.61.14-1.27.56-1.07,1.28.04.16.2.27.36.28,1.14.03,2.29.09,3.44.08.53,0,1.06-.08,1.59-.08.6,0,1.2.11,1.8.1.48,0,.48-.76,0-.75h0Z"/>
  <path class="cls-1" d="M672.24,38.59c2.89.81,5.81.87,8.79.94s6.1.14,9.14.21c.97.02.97-1.48,0-1.5-2.93-.07-5.87-.13-8.8-.2s-5.86-.09-8.73-.89c-.93-.26-1.33,1.19-.4,1.45h0Z"/>
  <path class="cls-1" d="M672.21,38.8c1.91.44,3.86.47,5.78.12.4-.07.62-.56.52-.92-.12-.42-.52-.6-.92-.52-1.65.3-3.35.26-4.98-.12-.39-.09-.81.12-.92.52-.1.38.13.83.52.92h0Z"/>
  <path class="cls-1" d="M690.25,39.68c3.54.1,7.08.07,10.62-.09.96-.04.97-1.54,0-1.5-3.54.16-7.08.18-10.62.09-.97-.03-.96,1.47,0,1.5h0Z"/>
  <path class="cls-1" d="M700.87,39.46c4.27.27,8.54.14,12.79-.37.95-.11.96-1.62,0-1.5-4.24.51-8.52.63-12.79.37-.96-.06-.96,1.44,0,1.5h0Z"/>
  <path class="cls-1" d="M700.46,39.5h1.58c-.07-.49-.13-.98-.2-1.47-.39.15-.73.2-1.14.15v1.5c4.6.09,9.22.15,13.77-.66.82-.15.64-1.55-.2-1.47-.22.02-.44.04-.67.06-.95.08-.96,1.58,0,1.5.22-.02.44-.04.67-.06l-.2-1.47c-4.41.78-8.91.69-13.37.6-.98-.02-.94,1.4,0,1.5.54.06,1.04-.01,1.54-.2.75-.29.7-1.47-.2-1.47h-1.58c-.97,0-.97,1.5,0,1.5h0Z"/>
  <path class="cls-1" d="M712.38,39.56l1.26-.22c.14-.02.91-.25.99-.18l.53-1.28c-3.74-.28-7.54.73-11.25-.07-.94-.2-1.34,1.24-.4,1.45,3.86.84,7.76-.17,11.65.13.64.05,1-.86.53-1.28s-1-.45-1.61-.35c-.7.11-1.4.24-2.1.36-.95.16-.55,1.61.4,1.45h0Z"/>
  <circle class="cls-5" cx="703.32" cy="13.64" r="4.2"/>
</svg>